<svg width="43" height="46" viewBox="0 0 43 46" fill="none" xmlns="http://www.w3.org/2000/svg">
<path fill-rule="evenodd" clip-rule="evenodd" d="M10.5984 0.0175564C10.6912 0.0115124 10.784 0 10.8768 0C16.7215 0.00259029 22.566 0.00546838 28.4106 0.0102172C29.8658 0.0113685 31.2856 0.22665 32.6337 0.792628C35.4233 1.96329 37.2633 3.99998 38.1049 6.91606C38.6129 8.67602 38.5793 10.4515 38.1933 12.2316C38.0731 12.7872 38.2565 13.2705 38.635 13.6786C39.8551 14.9939 40.7902 16.4863 41.3731 18.1851C41.9914 19.9862 42.1973 21.8374 41.926 23.7303C41.4824 26.8243 40.0671 29.3773 37.6612 31.3724C37.3373 31.6409 36.9943 31.8864 36.6599 32.1426C36.6224 32.1466 36.5941 32.1613 36.5871 32.2023L36.5915 32.1994C36.5369 32.1952 36.4934 32.207 36.4855 32.2715L36.4887 32.2688C36.4476 32.2659 36.4214 32.2786 36.4289 32.3262L36.4308 32.3248C36.2542 32.2989 36.1366 32.4246 36.0026 32.4996C34.5555 33.3082 33.0148 33.8268 31.3663 34.0197C30.3212 34.142 29.2699 34.0977 28.2233 34.1023C22.4892 34.1274 16.7549 34.1197 11.0208 34.122C10.5612 34.1221 10.611 34.1775 10.611 33.7238C10.6102 22.6007 10.6105 11.4776 10.6099 0.354437C10.6099 0.242192 10.6023 0.129802 10.5984 0.0175564Z" fill="white"/>
<path fill-rule="evenodd" clip-rule="evenodd" d="M10.5984 0.0184326C10.6023 0.130678 10.6099 0.243068 10.6099 0.355314C10.6105 11.4784 10.6102 22.6016 10.6111 33.7247C10.6111 34.1784 10.5612 34.123 11.0209 34.1229C16.755 34.1206 22.4892 34.1283 28.2233 34.1031C29.2699 34.0985 30.3212 34.1429 31.3664 34.0205C33.0148 33.8277 34.5556 33.3091 36.0026 32.5005C36.1366 32.4255 36.2543 32.2997 36.4308 32.3256C36.0214 32.7635 35.5352 33.1131 35.0791 33.4963C31.3417 36.6377 27.6048 39.7798 23.8554 42.9068C22.7627 43.8183 21.4688 44.3325 20.0934 44.6478C18.8095 44.9419 17.507 45.0495 16.1915 45.0484C10.9081 45.0438 5.62493 45.0444 0.341728 45.0526C0.076419 45.053 -0.000286483 44.9973 8.03251e-07 44.719C0.00775754 34.7058 0.00703933 24.6925 0.00359189 14.6793C0.00359189 14.4919 0.0474031 14.3414 0.160019 14.1886C3.58836 9.53097 7.01253 4.87033 10.438 0.210545C10.4874 0.143342 10.5447 0.0823263 10.5984 0.0184326Z" fill="#E21E32"/>
</svg>
